{
  "source": "C:\\Users\\Peter\\Desktop\\stuff\\MIUN\\quantitative_research\\video_compression\\videos\\UVG\\Beauty_1920x1080_120fps_420_8bit_YUV.y4m",
  "output": "C:\\Users\\Peter\\Desktop\\stuff\\MIUN\\quantitative_research\\video_compression\\compressed_videos\\UVG\\h264\\2.5\\Beauty_1920x1080_120fps_420_8bit_YUV_h264.mp4",
  "codec": "h264",
  "ok": "[yuv4mpegpipe @ 000001cad5005e40] Stream #0: not enough frames to estimate rate; consider increasing probesize\nInput #0, yuv4mpegpipe, from 'C:\\Users\\Peter\\Desktop\\stuff\\MIUN\\quantitative_research\\video_compression\\videos\\UVG\\Beauty_1920x1080_120fps_420_8bit_YUV.y4m':\n  Duration: 00:00:05.00, start: 0.000000, bitrate: 2985989 kb/s\n  Stream #0:0: Video: rawvideo (I420 / 0x30323449), yuv420p(progressive), 1920x1080, 120 fps, 120 tbr, 120 tbn\n[out#0/mp4 @ 000001cad500a640] Codec AVOption b:a (set bitrate (in bits/s)) has not been used for any stream. The most likely reason is either wrong type (e.g. a video option with no video streams) or that it is a private option of some decoder which was not actually used for any stream.\nStream mapping:\n  Stream #0:0 -> #0:0 (rawvideo (native) -> h264 (libx264))\nPress [q] to stop, [?] for help\n[libx264 @ 000001cad500cac0] using cpu capabilities: MMX2 SSE2Fast SSSE3 SSE4.2 AVX FMA3 BMI2 AVX2\n[libx264 @ 000001cad500cac0] profile High, level 5.1, 4:2:0, 8-bit\n[libx264 @ 000001cad500cac0] 264 - core 165 r3222 b35605a - H.264/MPEG-4 AVC codec - Copyleft 2003-2025 - http://www.videolan.org/x264.html - options: cabac=1 ref=5 deblock=1:0:0 analyse=0x3:0x113 me=hex subme=8 psy=1 psy_rd=1.00:0.00 mixed_ref=1 me_range=16 chroma_me=1 trellis=2 8x8dct=1 cqm=0 deadzone=21,11 fast_pskip=1 chroma_qp_offset=-2 threads=18 lookahead_threads=3 sliced_threads=0 nr=0 decimate=1 interlaced=0 bluray_compat=0 constrained_intra=0 bframes=3 b_pyramid=2 b_adapt=1 b_bias=0 direct=3 weightb=1 open_gop=0 weightp=2 keyint=250 keyint_min=25 scenecut=40 intra_refresh=0 rc_lookahead=50 rc=cbr mbtree=1 bitrate=2500 ratetol=1.0 qcomp=0.60 qpmin=0 qpmax=69 qpstep=4 vbv_maxrate=2500 vbv_bufsize=2500 nal_hrd=none filler=0 ip_ratio=1.40 aq=1:1.00\nOutput #0, mp4, to 'C:\\Users\\Peter\\Desktop\\stuff\\MIUN\\quantitative_research\\video_compression\\compressed_videos\\UVG\\h264\\2.5\\Beauty_1920x1080_120fps_420_8bit_YUV_h264.mp4':\n  Metadata:\n    encoder         : Lavf62.3.100\n  Stream #0:0: Video: h264 (avc1 / 0x31637661), yuv420p(tv, progressive), 1920x1080, q=2-31, 2500 kb/s, 120 fps, 15360 tbn\n    Metadata:\n      encoder         : Lavc62.11.100 libx264\n    Side data:\n      cpb: bitrate max/min/avg: 2500000/0/2500000 buffer size: 2500000 vbv_delay: N/A\nframe=    4 fps=0.0 q=49.0 size=       0KiB time=00:00:00.01 bitrate=  23.0kbits/s speed=0.0324x elapsed=0:00:00.51    \nframe=   56 fps= 54 q=42.0 size=       0KiB time=00:00:00.45 bitrate=   0.9kbits/s speed=0.437x elapsed=0:00:01.02    \nframe=   71 fps= 46 q=42.0 size=       0KiB time=00:00:00.57 bitrate=   0.7kbits/s speed=0.371x elapsed=0:00:01.54    \nframe=   98 fps= 48 q=42.0 size=       0KiB time=00:00:00.80 bitrate=   0.5kbits/s speed=0.388x elapsed=0:00:02.06    \nframe=  123 fps= 48 q=42.0 size=       0KiB time=00:00:01.00 bitrate=   0.4kbits/s speed=0.391x elapsed=0:00:02.57    \nframe=  148 fps= 48 q=42.0 size=     256KiB time=00:00:01.21 bitrate=1724.0kbits/s speed=0.393x elapsed=0:00:03.09    \nframe=  174 fps= 48 q=42.0 size=     256KiB time=00:00:01.43 bitrate=1463.4kbits/s speed=0.397x elapsed=0:00:03.61    \nframe=  198 fps= 48 q=43.0 size=     256KiB time=00:00:01.63 bitrate=1284.2kbits/s speed=0.396x elapsed=0:00:04.12    \nframe=  223 fps= 48 q=43.0 size=     256KiB time=00:00:01.84 bitrate=1138.9kbits/s speed=0.397x elapsed=0:00:04.63    \nframe=  269 fps= 52 q=42.0 size=     512KiB time=00:00:02.22 bitrate=1885.3kbits/s speed=0.432x elapsed=0:00:05.15    \nframe=  325 fps= 57 q=42.0 size=     512KiB time=00:00:02.69 bitrate=1558.4kbits/s speed=0.474x elapsed=0:00:05.67    \nframe=  353 fps= 57 q=42.0 size=     768KiB time=00:00:02.92 bitrate=2151.1kbits/s speed=0.473x elapsed=0:00:06.18    \nframe=  409 fps= 61 q=42.0 size=     768KiB time=00:00:03.39 bitrate=1855.1kbits/s speed=0.506x elapsed=0:00:06.70    \nframe=  463 fps= 64 q=42.0 size=    1024KiB time=00:00:03.84 bitrate=2183.7kbits/s speed=0.532x elapsed=0:00:07.21    \nframe=  475 fps= 61 q=42.0 size=    1024KiB time=00:00:03.94 bitrate=2128.3kbits/s speed=0.51x elapsed=0:00:07.73    \nframe=  500 fps= 61 q=43.0 size=    1024KiB time=00:00:04.15 bitrate=2021.4kbits/s speed=0.503x elapsed=0:00:08.24    \nframe=  527 fps= 60 q=42.0 size=    1024KiB time=00:00:04.37 bitrate=1917.5kbits/s speed=0.499x elapsed=0:00:08.76    \n[mp4 @ 000001cad500b780] Starting second pass: moving the moov atom to the beginning of the file\n[out#0/mp4 @ 000001cad500a640] video:1423KiB audio:0KiB subtitle:0KiB other streams:0KiB global headers:0KiB muxing overhead: 0.396672%\nframe=  600 fps= 65 q=-1.0 Lsize=    1428KiB time=00:00:04.98 bitrate=2348.1kbits/s speed=0.54x elapsed=0:00:09.22    \n[libx264 @ 000001cad500cac0] frame I:3     Avg QP:39.37  size: 11163\n[libx264 @ 000001cad500cac0] frame P:367   Avg QP:40.33  size:  2851\n[libx264 @ 000001cad500cac0] frame B:230   Avg QP:41.96  size:  1636\n[libx264 @ 000001cad500cac0] consecutive B-frames: 48.7%  0.7%  0.0% 50.7%\n[libx264 @ 000001cad500cac0] mb I  I16..4: 47.6% 51.3%  1.1%\n[libx264 @ 000001cad500cac0] mb P  I16..4:  0.8%  0.7%  0.0%  P16..4: 15.3%  0.6%  1.1%  0.0%  0.0%    skip:81.5%\n[libx264 @ 000001cad500cac0] mb B  I16..4:  0.1%  0.1%  0.0%  B16..8: 20.0%  0.2%  0.0%  direct: 0.0%  skip:79.6%  L0:35.7% L1:64.1% BI: 0.2%\n[libx264 @ 000001cad500cac0] 8x8 transform intra:48.4% inter:96.7%\n[libx264 @ 000001cad500cac0] direct mvs  spatial:95.7% temporal:4.3%\n[libx264 @ 000001cad500cac0] coded y,uvDC,uvAC intra: 10.0% 15.5% 0.1% inter: 0.6% 0.8% 0.0%\n[libx264 @ 000001cad500cac0] i16 v,h,dc,p: 21% 28%  5% 46%\n[libx264 @ 000001cad500cac0] i8 v,h,dc,ddl,ddr,vr,hd,vl,hu:  3%  4% 26%  7% 23%  8% 16%  5%  8%\n[libx264 @ 000001cad500cac0] i4 v,h,dc,ddl,ddr,vr,hd,vl,hu:  9%  3%  8%  8% 46%  7%  8%  4%  7%\n[libx264 @ 000001cad500cac0] i8c dc,h,v,p: 64% 24%  5%  7%\n[libx264 @ 000001cad500cac0] Weighted P-Frames: Y:0.0% UV:0.0%\n[libx264 @ 000001cad500cac0] ref P L0: 50.5% 10.2% 20.1%  6.8%  7.3%  5.0%\n[libx264 @ 000001cad500cac0] ref B L0: 83.8% 10.9%  4.0%  1.3%\n[libx264 @ 000001cad500cac0] ref B L1: 96.0%  4.0%\n[libx264 @ 000001cad500cac0] kb/s:2329.77\n",
  "seconds": 9.676943302154541,
  "probe_out": {}
}